<svg width="20" height="20" viewBox="0 0 20 20" fill="none" xmlns="http://www.w3.org/2000/svg">
<path d="M17.7778 2.77734H2.22222C1.63285 2.77734 1.06762 3.01147 0.650874 3.42822C0.234126 3.84497 0 4.4102 0 4.99957L0 14.9996C0 15.5889 0.234126 16.1542 0.650874 16.5709C1.06762 16.9877 1.63285 17.2218 2.22222 17.2218H17.7778C18.3671 17.2218 18.9324 16.9877 19.3491 16.5709C19.7659 16.1542 20 15.5889 20 14.9996V4.99957C20 4.4102 19.7659 3.84497 19.3491 3.42822C18.9324 3.01147 18.3671 2.77734 17.7778 2.77734Z" fill="#006C35"/>
<path d="M4.95551 7.80325C5.30662 7.83658 5.11273 7.20936 5.23995 7.09547C5.26384 7.03936 5.30829 7.03881 5.31162 7.10992V7.64214C5.30829 7.81547 5.42217 7.86603 5.51051 7.90214C5.60273 7.89492 5.66384 7.89825 5.69995 7.9877L5.74329 8.90881C5.74329 8.90881 5.95662 8.96992 5.96662 8.39047C5.97717 8.05047 5.89884 7.76603 5.94495 7.69992C5.94662 7.63492 6.0294 7.63103 6.08717 7.6627C6.17884 7.72714 6.21995 7.80714 6.36217 7.77547C6.5794 7.71603 6.7094 7.61047 6.71273 7.44381C6.69995 7.28547 6.68217 7.12714 6.61384 6.96881C6.62329 6.93992 6.57217 6.86547 6.58162 6.83658C6.62051 6.8977 6.67995 6.8927 6.69329 6.83658C6.65662 6.71492 6.5994 6.59825 6.50606 6.5477C6.4294 6.47992 6.31717 6.49381 6.27606 6.63492C6.25717 6.79714 6.33495 6.99047 6.45273 7.1477C6.47773 7.20936 6.51329 7.31158 6.49773 7.40381C6.43495 7.43936 6.37162 7.42492 6.3194 7.36936C6.3194 7.36936 6.14662 7.23992 6.14662 7.21103C6.19273 6.9177 6.15717 6.88436 6.13162 6.80325C6.11384 6.69103 6.06051 6.65492 6.01717 6.57825C5.97384 6.5327 5.91551 6.5327 5.88773 6.57825C5.81106 6.71047 5.84662 6.99492 5.90217 7.12214C5.94162 7.23881 6.00273 7.31269 5.97384 7.31269C5.94995 7.37881 5.90106 7.36325 5.86551 7.28714C5.8144 7.12936 5.8044 6.89436 5.8044 6.78825C5.78884 6.65714 5.77217 6.37658 5.68606 6.30547C5.63329 6.23381 5.55495 6.26825 5.52773 6.33436C5.52217 6.46436 5.52106 6.59492 5.53606 6.71547C5.59495 6.92603 5.61384 7.11158 5.64273 7.3277C5.65051 7.61714 5.47551 7.45325 5.48329 7.30992C5.52384 7.12381 5.51329 6.83047 5.47717 6.75603C5.44884 6.68214 5.41495 6.66325 5.34606 6.67547C5.29162 6.67103 5.15051 6.82547 5.11051 7.08103C5.11051 7.08103 5.07662 7.2127 5.06217 7.32992C5.04273 7.46214 4.95606 7.55547 4.89495 7.31158C4.84217 7.13436 4.80995 6.69714 4.72162 6.79936C4.69606 7.14103 4.66551 7.74214 4.95551 7.80325Z" fill="white"/>
<path d="M5.4831 8.05469C5.19421 8.06024 4.77143 8.43413 4.75977 8.64135C5.06421 8.49469 5.36365 8.35358 5.67365 8.20247C5.62365 8.12747 5.67088 8.06024 5.4831 8.05469Z" fill="white"/>
<path d="M7.07645 9.17209C7.21034 8.72598 7.05479 8.39709 7.12756 8.39876C7.28145 8.56487 7.49701 8.42098 7.54423 8.3632C7.56479 8.33431 7.61534 8.31542 7.6509 8.3532C7.77145 8.43987 7.98367 8.39876 8.02756 8.24653C8.05531 8.09365 8.07239 7.93901 8.07867 7.78376C7.98034 7.81431 7.90701 7.83487 7.90034 7.87542L7.87979 8.00765C7.87145 8.05042 7.78645 8.05209 7.78312 7.99765C7.7459 7.8282 7.59145 7.80598 7.49812 8.06876C7.43534 8.11987 7.32201 8.12987 7.30979 8.05376C7.32479 7.87765 7.25367 7.85376 7.11145 7.93653C7.0659 7.58709 7.01979 7.2532 6.97423 6.90376C7.03367 6.90209 7.08812 6.94598 7.14201 6.8782C7.08256 6.6932 6.95701 6.31542 6.88756 6.2882C6.85367 6.24709 6.82479 6.27265 6.7809 6.2832C6.70645 6.30709 6.63701 6.37153 6.65867 6.49653C6.74701 7.03265 6.80479 7.44098 6.89256 7.97709C6.9059 8.03987 6.85367 8.12265 6.7859 8.11431C6.6709 8.03653 6.64201 7.87876 6.44534 7.88542C6.30256 7.88709 6.13979 8.04153 6.11979 8.19098C6.0959 8.30931 6.08756 8.4382 6.11979 8.54209C6.21979 8.66209 6.34034 8.65042 6.44534 8.6232C6.53145 8.58765 6.60312 8.50098 6.63312 8.52153C6.65367 8.54653 6.63812 8.83153 6.22645 9.05042C5.97701 9.16209 5.77867 9.18764 5.67201 8.98431C5.6059 8.85709 5.67701 8.37376 5.51423 8.48598C5.03256 9.72765 6.64201 9.89987 6.82201 8.53709C6.83923 8.48098 6.90701 8.42487 6.91867 8.51653C6.88145 9.75098 5.67367 9.83598 5.46867 9.44764C5.41756 9.35598 5.40256 9.15265 5.39756 9.03042C5.36701 8.78765 5.23979 8.88098 5.21979 9.12153C5.19923 9.25542 5.20479 9.2932 5.20479 9.42153C5.26867 10.3965 6.82423 9.97765 7.07645 9.17209ZM6.47645 8.32876C6.46645 8.34765 6.42256 8.33987 6.39034 8.33987C6.35367 8.3382 6.33645 8.33209 6.31423 8.30265C6.30423 8.26931 6.33534 8.23765 6.34923 8.21265C6.36645 8.1832 6.45923 8.15265 6.49201 8.23487C6.49808 8.25047 6.49983 8.26742 6.4971 8.28394C6.49436 8.30046 6.48723 8.31594 6.47645 8.32876Z" fill="white"/>
<path d="M7.5569 7.22629C7.65357 7.19073 8.1119 6.66684 8.1119 6.66684C8.08801 6.64629 8.0669 6.63129 8.04301 6.61073C8.01746 6.58851 8.02024 6.56629 8.04301 6.54462C8.15635 6.47851 8.12024 6.33351 8.06079 6.2674C8.02234 6.24854 7.98002 6.23892 7.9372 6.2393C7.89437 6.23969 7.85223 6.25007 7.81413 6.26962C7.73468 6.34573 7.71579 6.46795 7.77857 6.54462C7.83968 6.57351 7.90079 6.63518 7.86024 6.66907C7.67301 6.86907 7.15968 7.21407 7.21913 7.22629C7.2319 7.24295 7.5469 7.2424 7.5569 7.22629ZM7.89635 6.40351C7.92579 6.39629 7.96357 6.4224 7.98135 6.46129C7.99913 6.50018 7.98968 6.5374 7.96079 6.54462H7.95968C7.93079 6.55184 7.89301 6.52573 7.87524 6.48684C7.85801 6.4474 7.86746 6.41073 7.89635 6.40351ZM4.92357 9.58684C4.84801 9.74073 4.81635 9.63518 4.80968 9.54907C4.801 9.40445 4.80827 9.25931 4.83135 9.11629C4.85024 8.99406 4.83135 9.03129 4.79246 9.08073C4.62079 9.35407 4.60579 9.76295 4.70079 9.88462C4.75079 9.9424 4.83357 9.96795 4.89524 9.94907C5.00301 9.9024 5.05024 9.68351 5.02468 9.60407C4.98801 9.54795 4.95968 9.53906 4.92357 9.58684ZM10.5797 6.69351C10.7775 6.95907 10.9652 7.22962 11.1491 7.50518C11.1852 7.74407 11.2113 7.9774 11.2269 8.20907C11.2575 8.65573 11.2663 9.13907 11.2386 9.60962C11.3219 9.61295 11.4569 9.47407 11.5036 9.27129C11.5341 8.99073 11.4925 8.49129 11.4897 8.32573C11.486 8.22197 11.481 8.11826 11.4747 8.01462C11.6936 8.3724 11.9069 8.74684 12.1152 9.16295C12.1913 9.1274 12.1747 8.70184 12.1302 8.64184C11.9636 8.28462 11.7341 7.93129 11.6608 7.79573C11.6336 7.74573 11.5408 7.60351 11.4302 7.44073C11.4207 7.31082 11.4052 7.18141 11.3836 7.05295C11.3491 6.81518 11.4819 7.07907 11.4636 6.94073C11.4208 6.70295 11.2886 6.5424 11.1341 6.32462C11.0841 6.25407 11.0858 6.23962 11.0086 6.34184C10.9813 6.40308 10.9687 6.46987 10.9719 6.53684C10.9478 6.50139 10.922 6.46709 10.8947 6.43407C10.8108 6.36172 10.7266 6.28987 10.6419 6.21851C10.5858 6.17851 10.4491 6.10629 10.4247 6.22629C10.4133 6.3104 10.4174 6.39589 10.4369 6.47851C10.4513 6.53795 10.5375 6.63684 10.5797 6.69351ZM10.9908 6.68018C11.0013 6.72629 11.0125 6.7724 11.0197 6.81962L11.028 6.86462C11.0047 6.83205 10.9804 6.80019 10.9552 6.76907C10.8641 6.66129 10.9397 6.68462 10.9908 6.68018Z" fill="white"/>
<path d="M12.1777 9.27371C11.9844 9.47537 11.7055 9.72371 11.4021 9.83871C11.3694 9.87537 11.4833 10.0326 11.6299 10.0326C11.876 10.0037 12.0927 9.86537 12.2933 9.50148C12.3471 9.41704 12.4416 9.23537 12.4438 9.09426C12.4621 8.26871 12.4027 7.62593 12.2788 7.02926C12.2705 6.98139 12.2728 6.93228 12.2855 6.88537C12.301 6.86648 12.3555 6.88537 12.3844 6.83871C12.426 6.79537 12.2727 6.43982 12.1849 6.30315C12.1538 6.24204 12.1433 6.20093 12.0916 6.31037C12.0371 6.39926 12.001 6.55426 12.0055 6.69871C12.1227 7.51148 12.1588 8.22315 12.2355 9.03593C12.2416 9.11426 12.2299 9.22871 12.1777 9.27371ZM15.4166 7.2126C15.4083 7.15482 15.3827 7.02037 15.3927 7.00315C15.4083 6.96204 15.4888 7.0076 15.5177 6.96037C15.5599 6.9176 15.3099 6.59648 15.2227 6.45982C15.191 6.39871 15.1805 6.3576 15.1288 6.46704C15.0744 6.55593 15.0555 6.71537 15.0771 6.85537C15.2077 7.73815 15.3049 8.40148 15.3249 9.18426C15.3133 9.25871 15.311 9.29871 15.276 9.39204C15.1988 9.49093 15.1138 9.61426 15.0333 9.67426C14.9533 9.73371 14.7827 9.79093 14.7266 9.83482C14.5505 9.93759 14.5499 10.0548 14.6933 10.0587C14.9388 10.0298 15.2299 10.0098 15.4305 9.70648C15.4844 9.62204 15.5483 9.39259 15.551 9.25148C15.5694 8.42593 15.5405 7.80926 15.4166 7.2126ZM13.5549 7.89982C13.5571 7.78648 13.5677 7.63648 13.5738 7.5426C13.5766 7.5076 13.5849 7.46815 13.6183 7.45926C13.6521 7.45037 13.7121 7.49371 13.7127 7.45704C13.706 7.38537 13.6916 7.27871 13.651 7.22815C13.5955 7.14593 13.4483 7.16593 13.4221 7.29482C13.4227 7.34259 13.4444 7.36815 13.4405 7.41148C13.4338 7.43593 13.4083 7.4526 13.3477 7.42371C13.3577 7.41482 13.3083 7.34648 13.3083 7.34648C13.261 7.3176 13.1977 7.34815 13.1571 7.37426C13.1425 7.40227 13.1337 7.433 13.1314 7.46454C13.1291 7.49608 13.1333 7.52776 13.1438 7.5576C13.2105 7.68371 13.4433 7.8976 13.5549 7.89982Z" fill="white"/>
<path d="M13.4767 6.93361C13.6395 7.13306 13.8056 7.33528 13.9729 7.54083C14.009 7.99972 14.0184 8.37528 14.054 8.83417C14.049 9.02861 13.989 9.19806 13.9317 9.2225C13.9317 9.2225 13.8456 9.2725 13.7879 9.2175C13.7456 9.20028 13.5773 8.93694 13.5773 8.93694C13.4912 8.85806 13.4345 8.88028 13.3734 8.93694C13.2045 9.09972 13.1284 9.40528 13.014 9.61528C12.984 9.6625 12.9006 9.7025 12.8079 9.61194C12.5729 9.29028 12.7106 8.83306 12.6817 8.95083C12.4723 9.18694 12.5645 9.5775 12.6117 9.66194C12.6806 9.79972 12.7367 9.88861 12.8712 9.95694C12.9934 10.0469 13.089 9.99028 13.1412 9.9275C13.2645 9.79917 13.2662 9.47417 13.324 9.40861C13.364 9.29028 13.4667 9.31028 13.5162 9.36306C13.5615 9.42696 13.6215 9.47898 13.6912 9.51472C13.8062 9.61639 13.9434 9.63472 14.0784 9.54195C14.1706 9.49028 14.2312 9.42306 14.2851 9.29028C14.3451 9.13028 14.3123 8.39472 14.3001 7.95361C14.3862 8.06472 14.4701 8.18083 14.5551 8.29695C14.5923 8.66528 14.6134 9.03194 14.6012 9.40639C14.5923 9.48139 14.8623 9.18417 14.8601 9.04306C14.859 8.92917 14.8601 8.82583 14.8601 8.72861C14.9901 8.92417 15.1167 9.12583 15.2356 9.33917C15.3101 9.30028 15.2856 8.88083 15.2384 8.82306C15.1012 8.59306 14.9184 8.35361 14.7923 8.1825C14.784 8.16083 14.7795 8.13639 14.7695 8.11583C14.719 7.99861 14.7506 7.90417 14.7267 7.77972C14.7034 7.65472 14.7095 7.46806 14.6734 7.31972C14.6634 7.26194 14.6334 7.07639 14.6423 7.05917C14.6567 7.0175 14.7123 7.06028 14.7395 7.0125C14.7801 6.96806 14.599 6.49861 14.5067 6.36417C14.4734 6.30417 14.4134 6.32472 14.339 6.4225C14.2706 6.48695 14.2962 6.63361 14.3223 6.77306C14.3873 7.11083 14.4417 7.43472 14.4884 7.75528C14.3885 7.62246 14.2876 7.49042 14.1856 7.35917L14.1812 7.33472C14.1812 7.32861 14.1662 7.04361 14.1529 6.97583C14.1506 6.94861 14.144 6.94028 14.1729 6.94361C14.2034 6.96917 14.2073 6.97083 14.2267 6.97972C14.2579 6.98528 14.2851 6.9325 14.2667 6.88417L13.9795 6.35528C13.9567 6.3325 13.9267 6.30806 13.8906 6.36139C13.8682 6.38097 13.8503 6.40514 13.838 6.43227C13.8257 6.4594 13.8194 6.48884 13.8195 6.51861C13.8284 6.64361 13.8501 6.77139 13.8584 6.89695L13.8706 6.96472C13.8579 6.94972 13.8423 6.93083 13.8356 6.92417C13.5917 6.6675 13.9479 6.8825 13.789 6.68417C13.6545 6.53639 13.6156 6.49028 13.5001 6.40139C13.4423 6.36417 13.4073 6.29306 13.3884 6.41417C13.3789 6.52037 13.3761 6.62706 13.3801 6.73361C13.3801 6.78472 13.4317 6.87806 13.4767 6.93361ZM8.53175 7.53306C8.67175 7.59083 8.76119 7.32417 8.81897 7.03195C8.85786 6.94972 8.88786 6.94083 8.90786 6.98306C8.90286 7.37194 8.93564 7.45806 9.03564 7.57639C9.25842 7.74861 9.44286 7.59806 9.45786 7.58361L9.63119 7.41028C9.66953 7.36972 9.72119 7.36695 9.77564 7.40306C9.82897 7.45083 9.82175 7.53417 9.93508 7.59195C10.0306 7.63028 10.2351 7.60083 10.2823 7.51861C10.3462 7.40972 10.3617 7.37195 10.3906 7.33083C10.4362 7.27028 10.514 7.2975 10.514 7.31639C10.5067 7.35028 10.4612 7.38417 10.4923 7.44472C10.5467 7.48528 10.559 7.45917 10.5912 7.45028C10.7045 7.39583 10.789 7.15028 10.789 7.15028C10.794 7.05861 10.7429 7.06639 10.7095 7.08528C10.6662 7.11139 10.6634 7.12028 10.6201 7.14694C10.5645 7.15528 10.4573 7.19195 10.4045 7.10972C10.3501 7.01083 10.349 6.87306 10.3079 6.77361C10.3079 6.76639 10.2356 6.61639 10.3029 6.60694C10.3367 6.61306 10.4084 6.63195 10.4201 6.57195C10.4551 6.51306 10.344 6.34528 10.2684 6.26028C10.2023 6.18806 10.1106 6.17917 10.0223 6.25306C9.96008 6.31028 9.96897 6.37361 9.95675 6.43417C9.94666 6.4769 9.94668 6.5214 9.9568 6.56412C9.96693 6.60685 9.98688 6.64662 10.0151 6.68028C10.0767 6.80194 10.1895 6.95917 10.1523 7.17917C10.1523 7.17917 10.0867 7.28361 9.97175 7.27028C9.92397 7.25972 9.84619 7.23917 9.80508 6.93361C9.77397 6.70195 9.81286 6.37806 9.71453 6.22639C9.67897 6.13472 9.65342 6.04639 9.56675 6.20306C9.54342 6.26472 9.44342 6.35806 9.51619 6.55083C9.57564 6.6725 9.59953 6.87083 9.57286 7.09194C9.53175 7.15472 9.52286 7.17583 9.46897 7.23861C9.39342 7.31972 9.31175 7.29917 9.24897 7.26861C9.19008 7.22917 9.14453 7.20861 9.11786 7.08306C9.12286 6.88306 9.13397 6.55528 9.09731 6.48583C9.04342 6.37806 8.95453 6.41694 8.91619 6.44972C8.73342 6.61694 8.64342 6.89861 8.58842 7.1225C8.53786 7.28583 8.48397 7.23917 8.44619 7.17306C8.35397 7.08639 8.34786 6.41028 8.23619 6.52194C8.05675 7.02972 8.3373 7.5875 8.53175 7.53306Z" fill="white"/>
<path d="M11.1873 8.62079L11.134 8.59023L10.089 8.58523C10.0351 8.56467 10.0512 8.5469 10.089 8.53245C10.3384 8.49856 10.7823 8.42634 10.8118 8.00023C10.8068 7.77856 10.7162 7.63301 10.444 7.59301C10.2445 7.60856 10.1018 7.80245 10.1245 8.01523C10.1151 8.07301 10.1434 8.18523 10.0851 8.19801C9.70121 8.23301 9.28288 8.47301 9.26899 8.64523C9.24566 8.66134 9.19344 8.61467 9.2001 8.54134C9.18161 8.22765 9.09133 7.9224 8.93621 7.64912C8.8151 7.52801 8.85288 7.56801 8.77177 7.62523C8.71955 7.68523 8.7101 7.72634 8.71288 7.84579C8.71288 7.85023 8.81066 8.12301 8.89344 8.31412C8.94844 8.51023 9.0001 8.73412 8.96288 8.94579C8.83399 9.22579 8.57455 9.4769 8.32455 9.61301C8.19566 9.65467 8.0851 9.63967 8.05788 9.61079C7.97844 9.55745 7.98233 9.45912 7.98844 9.45745C8.19899 9.31023 8.4401 9.1919 8.62899 8.79579C8.68455 8.64467 8.70121 8.55301 8.64621 8.31912C8.63093 8.2367 8.59304 8.16014 8.53677 8.09801C8.57066 8.07579 8.66788 8.14967 8.68288 8.10579C8.65472 7.97776 8.59097 7.86029 8.49899 7.7669C8.42399 7.69856 8.34233 7.69079 8.27344 7.75356C8.19566 7.7969 8.17899 7.95134 8.21621 8.0869C8.25733 8.18912 8.36899 8.20634 8.44899 8.41134C8.44899 8.41579 8.47788 8.56467 8.43677 8.62301C8.40399 8.72523 7.97899 9.05912 7.95566 9.07412C7.94399 9.08856 7.94899 9.0669 7.94733 9.01134C7.94455 8.94356 7.97455 8.78356 7.96621 8.78245C7.82788 8.8719 7.78177 9.14579 7.75677 9.2269C7.40677 9.46856 7.01066 9.64856 6.78177 9.89412C6.66233 10.0802 7.60288 9.68023 7.71233 9.6319C7.73677 9.64967 7.73399 9.73356 7.79955 9.80856C7.89733 9.94079 8.10399 10.0225 8.30677 9.9719C8.64566 9.84912 8.84177 9.61801 9.04066 9.3619C9.06899 9.32023 9.11344 9.28856 9.15455 9.32023C9.29122 9.62634 9.68621 9.84301 10.1957 9.86579C10.314 9.7219 10.2568 9.65245 10.209 9.62245C10.209 9.61801 9.95733 9.52245 9.91899 9.4269C9.89566 9.34023 9.95233 9.26412 10.0657 9.20634C10.3929 9.1669 10.7145 9.12301 11.0262 9.02301C11.0295 8.91856 11.0901 8.7619 11.1318 8.69412C11.1718 8.62523 11.1934 8.64579 11.1873 8.62079ZM10.3279 7.96967C10.3434 7.94356 10.3951 7.94467 10.4434 7.97301C10.4918 8.00079 10.519 8.04523 10.5029 8.07134C10.4873 8.09801 10.4351 8.09634 10.3868 8.06801C10.3384 8.04023 10.3123 7.99634 10.3279 7.96967ZM9.90733 9.02523C9.7951 9.06356 9.68733 9.09356 9.68733 9.25579C9.72899 9.48134 9.6301 9.40412 9.57177 9.37301C9.50288 9.32356 9.30899 9.20412 9.28121 8.94634C9.27677 8.88468 9.3251 8.83301 9.40233 8.83301C9.51844 8.86468 9.6901 8.8669 9.83899 8.88245C9.96066 8.89023 10.0212 8.98579 9.90733 9.02523ZM6.03677 6.52245C6.15677 6.58023 6.38344 6.55579 6.37344 6.36134C6.37344 6.34412 6.36899 6.28634 6.36733 6.27079C6.34288 6.21356 6.27622 6.22745 6.26066 6.2869C6.25566 6.30634 6.26899 6.33745 6.25177 6.34745C6.24177 6.35745 6.20344 6.35134 6.2051 6.29801C6.2051 6.28079 6.19233 6.26245 6.1851 6.2519C6.17733 6.2469 6.17288 6.24523 6.15899 6.24523C6.14233 6.24579 6.14233 6.25023 6.13344 6.26468C6.12955 6.27856 6.12399 6.29301 6.12399 6.30912C6.12177 6.32801 6.11455 6.33467 6.10066 6.33801C6.0851 6.33801 6.08844 6.33967 6.07622 6.33134C6.06844 6.32301 6.05899 6.31968 6.05899 6.30579C6.05895 6.28955 6.05632 6.27342 6.05122 6.25801C6.04455 6.24912 6.03399 6.24523 6.02177 6.2419C5.95622 6.2419 5.95177 6.3169 5.95566 6.34579C5.94955 6.35079 5.94733 6.48523 6.03677 6.52245Z" fill="white"/>
<path d="M9.72903 7.79094C9.72903 7.77372 9.71626 7.75594 9.70903 7.74483C9.70126 7.73983 9.69681 7.73816 9.68292 7.73816C9.66626 7.73872 9.66681 7.74316 9.65737 7.75761C9.65348 7.77205 9.64792 7.78594 9.64792 7.80205C9.64625 7.8215 9.63848 7.82816 9.62459 7.83094C9.60903 7.83094 9.61237 7.83261 9.59959 7.82483C9.59181 7.8165 9.58237 7.81316 9.58237 7.79928C9.58237 7.78303 9.57974 7.7669 9.57459 7.7515C9.56792 7.74261 9.55737 7.73872 9.54514 7.73594C9.47959 7.73594 9.47514 7.81094 9.47848 7.83928C9.47348 7.84483 9.4707 7.97872 9.56014 8.0165C9.6807 8.07372 9.96681 8.04039 9.89681 7.85539C9.89564 7.82496 9.8936 7.79458 9.8907 7.76428C9.86625 7.70705 9.79903 7.7215 9.78403 7.78039C9.77959 7.79983 9.79292 7.83094 9.77514 7.84094C9.76625 7.85094 9.72737 7.84483 9.72903 7.79094ZM11.6163 7.39816C11.7363 7.45594 11.9624 7.4315 11.9524 7.23761C11.9512 7.20719 11.9492 7.1768 11.9463 7.1465C11.9218 7.08928 11.8551 7.10372 11.8401 7.16261C11.8351 7.18205 11.8485 7.21316 11.8307 7.22316C11.8207 7.23316 11.7824 7.22761 11.784 7.17372C11.784 7.1565 11.7713 7.13816 11.764 7.12761C11.7563 7.12261 11.7518 7.12094 11.7374 7.12094C11.7207 7.12205 11.7213 7.12594 11.7118 7.14039C11.7079 7.15483 11.7024 7.16872 11.7024 7.18483C11.7001 7.20428 11.6929 7.21094 11.679 7.21372C11.6635 7.21372 11.6668 7.21539 11.654 7.20761C11.6463 7.19928 11.6374 7.19594 11.6374 7.18205C11.6373 7.16563 11.6347 7.14933 11.6296 7.13372C11.6224 7.12483 11.6124 7.12094 11.5996 7.11816C11.534 7.11816 11.5296 7.19316 11.5335 7.2215C11.5296 7.22705 11.5268 7.36094 11.6163 7.39816ZM11.6974 6.64705C11.7401 6.76705 11.6646 6.8815 11.7096 6.89816C11.7501 6.91705 11.8079 6.77428 11.829 6.64261C11.854 6.53594 11.7779 6.31761 11.6701 6.27261C11.6046 6.25705 11.5113 6.29594 11.5413 6.38372C11.5263 6.42594 11.6735 6.56928 11.6974 6.64705ZM12.8057 9.46039C12.8896 9.46094 12.9863 9.26872 13.0274 9.07816C13.0501 8.81594 13.0118 8.6565 13.0051 8.50205C12.9979 8.34816 12.8313 7.17316 12.7968 7.0565C12.7563 6.83594 12.9596 7.02705 12.9374 6.89872C12.8668 6.73705 12.6918 6.50205 12.6363 6.3615C12.6029 6.3015 12.6174 6.24816 12.5429 6.34594C12.4746 6.57094 12.4507 6.75428 12.4768 6.89428C12.6535 7.8165 12.8346 8.58316 12.8057 9.46039ZM14.8924 7.04928C14.9118 7.10928 14.8629 7.30316 14.9035 7.32094C14.9407 7.34094 14.9929 7.18705 15.0124 7.04428C15.0229 6.96594 14.9657 6.69261 14.8674 6.64372C14.8074 6.62705 14.7224 6.66872 14.7501 6.76428C14.7363 6.81039 14.8707 6.96483 14.8924 7.04928ZM7.60403 9.08039C7.64014 9.09539 7.68959 8.98205 7.70848 8.87705C7.71903 8.81928 7.66348 8.61872 7.56959 8.58261C7.51181 8.57039 7.43292 8.58594 7.45737 8.6715C7.45459 8.71761 7.58514 8.77316 7.59292 8.88039C7.61181 8.92483 7.56514 9.06761 7.60403 9.08039ZM5.07292 6.5165C5.09126 6.56261 5.05459 6.70983 5.09292 6.72372C5.12792 6.73928 5.17737 6.6215 5.1957 6.51316C5.20626 6.45316 5.19792 6.24983 5.05903 6.20816C5.00181 6.19539 4.92237 6.22705 4.94848 6.29983C4.93514 6.33428 5.05237 6.45205 5.07292 6.5165ZM7.79626 7.16816C7.69014 7.22594 7.64848 7.39705 7.71514 7.4965C7.77681 7.58483 7.87459 7.55205 7.88792 7.55205C7.99237 7.56483 8.05403 7.3565 8.05403 7.3565C8.05403 7.3565 8.05737 7.29816 7.93348 7.40872C7.88126 7.41872 7.87459 7.39928 7.86181 7.36928C7.84916 7.3149 7.85482 7.25788 7.87792 7.20705C7.8957 7.15539 7.8557 7.13261 7.79626 7.16816ZM8.59737 6.52761C8.61449 6.51703 8.62918 6.50295 8.64048 6.48629C8.65178 6.46963 8.65943 6.45077 8.66292 6.43094C8.67903 6.34983 8.57681 6.46928 8.56403 6.37872C8.54126 6.29483 8.60681 6.26039 8.66903 6.17928C8.67126 6.12316 8.67014 6.08372 8.59403 6.12928C8.5407 6.16539 8.43403 6.27539 8.4307 6.40205C8.42737 6.47372 8.41403 6.47316 8.46125 6.51872C8.49514 6.56816 8.52903 6.56316 8.59737 6.52761ZM9.31903 6.57094C9.38792 6.38428 9.38792 6.30539 9.39292 6.22594C9.37181 6.10539 9.29014 6.10928 9.23626 6.24316C9.21292 6.29372 9.1857 6.55983 9.19014 6.55983C9.17181 6.63928 9.27292 6.67316 9.31903 6.57094ZM13.8579 7.89483C13.8579 7.89483 13.3007 8.29094 13.2874 8.30483C13.2318 8.35372 13.2596 8.52705 13.2874 8.50705C13.3268 8.52261 13.8874 8.14205 13.8763 8.09761C13.9024 8.09872 13.9151 7.87483 13.8579 7.89483ZM13.7896 8.96928C13.8268 8.98928 13.9251 8.86761 13.9213 8.71594C13.9324 8.63761 13.8929 8.35039 13.7951 8.3015C13.7351 8.28483 13.6551 8.33594 13.6829 8.43094C13.669 8.4765 13.7518 8.63594 13.7735 8.72039C13.7929 8.78094 13.749 8.9515 13.7896 8.96928ZM10.634 9.80039C10.634 9.80539 10.6813 9.84594 10.7368 9.81372C10.8535 9.76872 10.9268 9.72539 11.0901 9.68928C11.1329 9.68872 11.1301 9.57372 11.0624 9.56983C10.974 9.57428 10.8918 9.57872 10.8035 9.64872C10.749 9.66094 10.7401 9.62816 10.7279 9.59816C10.7146 9.52428 10.7585 9.47316 10.749 9.41816C10.7524 9.4215 10.6985 9.37205 10.6435 9.39983C10.6407 9.39983 10.5207 9.48094 10.4824 9.53761C10.4585 9.55594 10.4613 9.5715 10.4685 9.60205C10.4868 9.64428 10.5196 9.6315 10.5563 9.6115C10.6051 9.60483 10.6285 9.63705 10.6246 9.69539C10.6013 9.76928 10.634 9.7965 10.634 9.80039ZM14.2735 9.89261C14.2551 9.92428 14.2429 9.97205 14.2996 9.98705C14.404 10.0165 14.6446 9.85983 14.6446 9.85705C14.6835 9.82761 14.6707 9.77261 14.6674 9.77261C14.6446 9.7465 14.5935 9.7615 14.559 9.75761C14.5429 9.75761 14.4885 9.74928 14.5146 9.7015C14.533 9.67574 14.5475 9.64749 14.5579 9.61761C14.574 9.5815 14.5601 9.55761 14.5013 9.53816C14.4418 9.52705 14.4179 9.53261 14.3518 9.53816C14.3163 9.54594 14.304 9.5615 14.2974 9.60483C14.3001 9.67039 14.3396 9.66705 14.3807 9.69316C14.4046 9.72372 14.4201 9.7515 14.379 9.80094C14.3401 9.83705 14.3129 9.85705 14.2735 9.89261ZM14.1668 12.7759H13.3335V12.4982C13.3335 12.4245 13.3042 12.3538 13.2521 12.3017C13.2 12.2497 13.1294 12.2204 13.0557 12.2204C12.982 12.2204 12.9114 12.2497 12.8593 12.3017C12.8072 12.3538 12.7779 12.4245 12.7779 12.4982V12.7759H6.11126C6.11126 12.7759 6.11126 13.3315 7.77792 13.3315H12.7779V13.6093C12.7779 13.6829 12.8072 13.7536 12.8593 13.8057C12.9114 13.8578 12.982 13.8871 13.0557 13.8871C13.1294 13.8871 13.2 13.8578 13.2521 13.8057C13.3042 13.7536 13.3335 13.6829 13.3335 13.6093V13.3315H13.889V13.6093C13.889 13.6829 13.9183 13.7536 13.9704 13.8057C14.0225 13.8578 14.0931 13.8871 14.1668 13.8871C14.2405 13.8871 14.3111 13.8578 14.3632 13.8057C14.4153 13.7536 14.4446 13.6829 14.4446 13.6093V13.0537C14.4446 12.98 14.4153 12.9094 14.3632 12.8573C14.3111 12.8052 14.2405 12.7759 14.1668 12.7759Z" fill="white"/>
</svg>
